<svg width="45" height="45" viewBox="0 0 45 45" fill="none" xmlns="http://www.w3.org/2000/svg">
<g clip-path="url(#clip0_9_198)">
<path d="M40.5212 4.37088C37.86 2.02376 34.2736 1.01888 30.7803 1.64151C27.159 2.28949 23.9871 4.45405 22.0637 7.59006C20.1403 4.45405 16.9684 2.28949 13.3471 1.64151C9.85391 1.01983 6.26782 2.02463 3.6062 4.37088C0.405633 7.30417 -0.737069 12.2615 0.471051 17.9731C0.475533 17.9945 0.489926 18.0105 0.496218 18.0311C0.526988 18.1242 0.574134 18.2111 0.635501 18.2877C0.649377 18.3044 0.655066 18.3251 0.670838 18.3408C0.691179 18.356 0.712296 18.3701 0.734188 18.383C0.77168 18.4138 0.812189 18.4407 0.855112 18.4633C0.937078 18.5063 1.02663 18.5332 1.11877 18.5423C1.14316 18.5448 1.16634 18.5564 1.19073 18.5564C1.21702 18.5527 1.24314 18.5476 1.26882 18.5411C1.29356 18.5423 1.31829 18.5421 1.34294 18.5405C1.36449 18.536 1.38044 18.5217 1.40121 18.5154C1.44775 18.5007 1.49266 18.4813 1.53515 18.4575C1.57902 18.4345 1.62039 18.407 1.65857 18.3754C1.67495 18.3617 1.69529 18.3562 1.71063 18.3408L4.29778 15.7544L4.3064 15.7487C4.87353 15.1799 5.7924 15.1722 6.36901 15.7314C6.94561 16.2905 6.96621 17.2092 6.41512 17.7935L2.17174 22.0369C1.98523 22.2223 1.91197 22.4933 1.97954 22.7475C2.04711 23.0016 2.24535 23.2004 2.49926 23.2686C2.75318 23.3369 3.02433 23.2644 3.21033 23.0784L7.40725 18.8816C7.41302 18.8761 7.42069 18.8745 7.42647 18.8688C7.43741 18.8579 7.44439 18.8447 7.45517 18.8337L10.0059 16.283C10.0123 16.2769 10.0209 16.2751 10.0272 16.2688C10.6086 15.7114 11.5259 15.7114 12.1072 16.2688C12.6773 16.8409 12.6802 17.7654 12.1137 18.341L12.1051 18.3467L4.27408 26.1785C4.08834 26.3643 4.01577 26.635 4.08377 26.8889C4.15178 27.1427 4.35001 27.3408 4.60376 27.4088C4.8575 27.4768 5.12831 27.4043 5.31413 27.2185L12.1123 20.4283L12.1301 20.4104C12.7113 19.8515 13.6343 19.8652 14.1986 20.4411C14.763 21.017 14.7579 21.9401 14.1873 22.5098L12.6283 24.0692L12.6274 24.0699L12.6271 24.0703L6.94458 29.753C6.75875 29.9389 6.68627 30.2096 6.75427 30.4634C6.82228 30.7171 7.02051 30.9154 7.27425 30.9834C7.528 31.0514 7.7988 30.9788 7.98463 30.7931L13.6683 25.109C14.2429 24.5346 15.1742 24.5349 15.7486 25.1094C16.323 25.6839 16.3228 26.6153 15.7482 27.1897C15.7451 27.1928 15.7442 27.1972 15.7411 27.2004L10.041 32.9004C10.0373 32.9041 10.0364 32.9092 10.0328 32.9129C10.029 32.9168 10.0238 32.9181 10.0202 32.922C9.99328 32.9579 9.97001 32.9963 9.95053 33.0367C9.922 33.0748 9.89726 33.1156 9.87658 33.1585C9.86296 33.204 9.85382 33.2507 9.84943 33.2979C9.81952 33.3868 9.8215 33.4833 9.85486 33.571C9.86124 33.6181 9.87227 33.6646 9.8877 33.7096C9.91062 33.7526 9.9376 33.7933 9.96846 33.8311C9.98914 33.8697 10.0134 33.9063 10.0411 33.9404C10.0448 33.9441 10.0499 33.9451 10.0536 33.9487C10.0575 33.9524 10.0588 33.9575 10.0627 33.9612C13.6546 37.1877 17.5446 40.0661 21.6803 42.5579C21.9159 42.7016 22.2119 42.7016 22.4474 42.5579C26.5831 40.0661 30.473 37.1877 34.065 33.9612C34.069 33.9575 34.0702 33.9524 34.074 33.9487C34.0778 33.945 34.0828 33.944 34.0865 33.9404C34.1141 33.9063 34.1384 33.8697 34.1592 33.8311C34.19 33.7933 34.217 33.7526 34.24 33.7096C34.2634 33.619 34.2832 33.5274 34.2992 33.4352C34.2965 33.3889 34.2895 33.3429 34.2781 33.2979C34.2738 33.2506 34.2647 33.2039 34.251 33.1585C34.2303 33.1156 34.2055 33.0748 34.177 33.0367C34.1576 32.9963 34.1342 32.9579 34.1073 32.922C34.1037 32.918 34.0985 32.9168 34.0947 32.9129C34.0911 32.9092 34.0902 32.9041 34.0865 32.9004L28.3864 27.2004C28.3833 27.1972 28.3824 27.1929 28.3793 27.1897C27.8048 26.6153 27.8046 25.6839 28.3789 25.1094C28.9533 24.5349 29.8846 24.5347 30.4592 25.109L36.1429 30.7931C36.43 31.0803 36.8956 31.0803 37.1829 30.7931C37.4701 30.5059 37.4701 30.0402 37.1829 29.753L31.5005 24.07L31.5002 24.0696L31.4993 24.0689L29.9402 22.5095C29.5685 22.1379 29.4233 21.5963 29.5593 21.0886C29.6952 20.581 30.0917 20.1843 30.5993 20.0483C31.107 19.9122 31.6487 20.0572 32.0203 20.4288L32.0291 20.4346L38.8135 27.2184C39.1011 27.503 39.5648 27.5019 39.8509 27.2157C40.1371 26.9295 40.1383 26.4659 39.8535 26.1783L33.066 19.3973L33.0603 19.3887C33.0556 19.384 33.0499 19.381 33.0451 19.3763L32.0224 18.3465L32.0202 18.3451C31.4465 17.771 31.4466 16.8406 32.0206 16.2669C32.5946 15.6931 33.525 15.6932 34.0988 16.2672C34.1051 16.2735 34.1137 16.2754 34.1201 16.2814L36.6011 18.7625C36.6308 18.7978 36.6621 18.8305 36.7013 18.8697L36.7023 18.8709L36.7025 18.871L36.703 18.8716L40.917 23.0783C41.1029 23.2643 41.3741 23.3369 41.6281 23.2686C41.882 23.2003 42.0802 23.0015 42.1478 22.7474C42.2153 22.4932 42.1421 22.2223 41.9556 22.0368L37.7351 17.8258C37.7224 17.8094 37.7079 17.7944 37.694 17.779L37.6906 17.7734C37.1607 17.193 37.1835 16.2977 37.7423 15.7451C38.3234 15.1891 39.2391 15.1891 39.8201 15.7451L42.4166 18.3408C42.4319 18.3562 42.4524 18.3617 42.4687 18.3754C42.5455 18.437 42.6326 18.4844 42.7261 18.5153C42.7469 18.5216 42.7628 18.5359 42.7844 18.5405C42.8342 18.5508 42.885 18.5561 42.9358 18.5561L42.9366 18.5562H42.9368H42.9373C43.0266 18.5554 43.1151 18.5381 43.1982 18.5053C43.221 18.4941 43.2432 18.4817 43.2648 18.4681C43.3237 18.4396 43.3785 18.4032 43.4277 18.3601C43.4365 18.352 43.448 18.3493 43.4566 18.3408C43.4721 18.3253 43.4777 18.3048 43.4915 18.2883C43.5294 18.244 43.5618 18.1953 43.5878 18.1431C43.6044 18.1098 43.6183 18.0753 43.6294 18.0399C43.6395 18.0181 43.6484 17.9958 43.6562 17.9732C44.8644 12.2615 43.7217 7.30417 40.5212 4.37088ZM42.4556 16.3L40.8602 14.705C39.6968 13.5942 37.8657 13.5942 36.7022 14.705C36.3386 15.0716 36.0774 15.5271 35.9447 16.0261L35.1457 15.2272C35.1344 15.2158 35.1192 15.212 35.1072 15.2016C34.0884 14.2031 32.4986 14.0835 31.3418 14.9182C30.1851 15.753 29.7976 17.2994 30.424 18.581C29.4106 18.7741 28.5736 19.4862 28.2207 20.4555C27.8677 21.4248 28.0508 22.5084 28.7027 23.3079C28.1872 23.4327 27.7157 23.696 27.3391 24.0694C26.199 25.2136 26.1932 27.0626 27.3263 28.2138C27.3317 28.2196 27.3333 28.2274 27.3391 28.2331L32.4951 33.3891C29.2437 36.2416 25.7537 38.8103 22.0636 41.0667C18.3735 38.8102 14.8835 36.2416 11.6321 33.3891L16.7881 28.2331C16.7939 28.2274 16.7954 28.2196 16.801 28.2138C17.934 27.0625 17.9282 25.2136 16.7881 24.0694C16.4112 23.6963 15.9397 23.4331 15.4243 23.3082C16.0759 22.5091 16.2593 21.426 15.9069 20.4569C15.5546 19.4878 14.7185 18.7753 13.7057 18.5812C14.251 17.4585 14.027 16.1139 13.1473 15.2285C11.9968 14.1285 10.1881 14.116 9.02244 15.2001C9.00951 15.2114 8.99305 15.2155 8.98081 15.2278L8.17571 16.0329C8.04798 15.5328 7.78932 15.0757 7.42647 14.7085C6.28454 13.5689 4.43775 13.5615 3.28669 14.6919C3.28075 14.6975 3.2729 14.6992 3.26713 14.7049L1.67167 16.2999C1.00758 11.702 2.04306 7.79847 4.60014 5.45532C6.9382 3.43288 10.0601 2.56555 13.1064 3.09226C16.5647 3.66611 19.5167 5.89773 21.4179 9.37694C21.5584 9.59768 21.8019 9.73144 22.0636 9.73144C22.3253 9.73144 22.5689 9.59776 22.7093 9.37694C24.6106 5.89773 27.5625 3.66619 31.0209 3.09226C34.0671 2.56572 37.1889 3.43296 39.5271 5.45532C42.0842 7.79855 43.1197 11.7021 42.4556 16.3Z" fill="black"/>
</g>
<defs>
<clipPath id="clip0_9_198">
<rect width="44.1268" height="44.1268" fill="white"/>
</clipPath>
</defs>
</svg>
